<svg width="233" height="63" viewBox="0 0 233 63" fill="none" xmlns="http://www.w3.org/2000/svg">
<path d="M75.7191 38.2041H72.7503V46.2354H67.2659V23.4854H76.2191C78.917 23.4854 81.0263 24.0843 82.5472 25.2822C84.068 26.4801 84.8284 28.1729 84.8284 30.3604C84.8284 31.9437 84.5055 33.2562 83.8597 34.2979C83.2243 35.3395 82.2243 36.1833 80.8597 36.8291L85.6097 46.001V46.2354H79.7347L75.7191 38.2041ZM72.7503 33.9697H76.2191C77.2607 33.9697 78.042 33.6989 78.5628 33.1572C79.0941 32.6051 79.3597 31.8395 79.3597 30.8604C79.3597 29.8812 79.0941 29.1156 78.5628 28.5635C78.0316 28.001 77.2503 27.7197 76.2191 27.7197H72.7503V33.9697ZM87.2347 37.626C87.2347 35.9385 87.5628 34.4385 88.2191 33.126C88.8753 31.8031 89.818 30.7874 91.0472 30.0791C92.2763 29.3708 93.7191 29.0166 95.3753 29.0166C97.9066 29.0166 99.9013 29.8031 101.36 31.376C102.818 32.9385 103.547 35.0687 103.547 37.7666V37.9541C103.547 40.5895 102.813 42.6833 101.344 44.2354C99.8857 45.777 97.9066 46.5479 95.4066 46.5479C93.0003 46.5479 91.068 45.8291 89.6097 44.3916C88.1513 42.9437 87.3649 40.9854 87.2503 38.5166L87.2347 37.626ZM92.5003 37.9541C92.5003 39.5166 92.7451 40.6624 93.2347 41.3916C93.7243 42.1208 94.4482 42.4854 95.4066 42.4854C97.2816 42.4854 98.2399 41.0426 98.2816 38.1572V37.626C98.2816 34.5947 97.3128 33.0791 95.3753 33.0791C93.6149 33.0791 92.6618 34.3864 92.5159 37.001L92.5003 37.9541ZM113.016 42.4854C113.756 42.4854 114.328 42.2874 114.735 41.8916C115.141 41.4854 115.339 40.9229 115.328 40.2041H120.266C120.266 42.0583 119.599 43.5791 118.266 44.7666C116.943 45.9541 115.235 46.5479 113.141 46.5479C110.683 46.5479 108.745 45.777 107.328 44.2354C105.912 42.6937 105.203 40.5583 105.203 37.8291V37.6104C105.203 35.902 105.516 34.3968 106.141 33.0947C106.776 31.7822 107.688 30.777 108.875 30.0791C110.063 29.3708 111.469 29.0166 113.094 29.0166C115.292 29.0166 117.037 29.626 118.328 30.8447C119.62 32.0635 120.266 33.7145 120.266 35.7979H115.328C115.328 34.9229 115.115 34.251 114.688 33.7822C114.261 33.3135 113.688 33.0791 112.969 33.0791C111.604 33.0791 110.808 33.9489 110.578 35.6885C110.506 36.2406 110.469 37.001 110.469 37.9697C110.469 39.6676 110.672 40.8447 111.078 41.501C111.485 42.1572 112.131 42.4854 113.016 42.4854ZM129.282 39.9385L127.797 41.4229V46.2354H122.532V22.2197H127.797V34.9697L128.328 34.2666L132.297 29.3291H138.61L132.688 36.2822L139 46.2354H132.969L129.282 39.9385ZM147.86 46.5479C145.266 46.5479 143.167 45.777 141.563 44.2354C139.959 42.6833 139.157 40.6676 139.157 38.1885V37.751C139.157 36.0218 139.474 34.4958 140.11 33.1729C140.756 31.8499 141.693 30.8291 142.922 30.1104C144.151 29.3812 145.61 29.0166 147.297 29.0166C149.672 29.0166 151.547 29.7562 152.922 31.2354C154.297 32.7041 154.985 34.7562 154.985 37.3916V39.4385H144.516C144.703 40.3864 145.115 41.1312 145.75 41.6729C146.386 42.2145 147.209 42.4854 148.219 42.4854C149.886 42.4854 151.188 41.902 152.125 40.7354L154.532 43.5791C153.875 44.4854 152.943 45.2093 151.735 45.751C150.537 46.2822 149.245 46.5479 147.86 46.5479ZM147.266 33.0791C145.724 33.0791 144.808 34.0999 144.516 36.1416H149.828V35.7354C149.849 34.8916 149.636 34.2406 149.188 33.7822C148.74 33.3135 148.099 33.0791 147.266 33.0791ZM163.25 25.126V29.3291H166.032V32.9854H163.25V40.7197C163.25 41.3551 163.365 41.7979 163.594 42.0479C163.823 42.2979 164.276 42.4229 164.953 42.4229C165.474 42.4229 165.912 42.3916 166.266 42.3291V46.0947C165.318 46.3968 164.328 46.5479 163.297 46.5479C161.485 46.5479 160.146 46.1208 159.282 45.2666C158.417 44.4124 157.985 43.1156 157.985 41.376V32.9854H155.828V29.3291H157.985V25.126H163.25ZM186.766 38.5322C186.693 40.1156 186.266 41.5166 185.485 42.7354C184.703 43.9437 183.604 44.8812 182.188 45.5479C180.782 46.2145 179.172 46.5479 177.36 46.5479C174.37 46.5479 172.016 45.5739 170.297 43.626C168.578 41.6781 167.719 38.9281 167.719 35.376V34.251C167.719 32.0218 168.104 30.0739 168.875 28.4072C169.657 26.7301 170.776 25.4385 172.235 24.5322C173.693 23.6156 175.381 23.1572 177.297 23.1572C180.058 23.1572 182.276 23.8864 183.953 25.3447C185.631 26.7926 186.584 28.7926 186.813 31.3447H181.344C181.302 29.9593 180.953 28.9645 180.297 28.3604C179.641 27.7562 178.641 27.4541 177.297 27.4541C175.933 27.4541 174.933 27.9645 174.297 28.9854C173.662 30.0062 173.328 31.6364 173.297 33.876V35.4854C173.297 37.9124 173.599 39.6468 174.203 40.6885C174.818 41.7301 175.87 42.251 177.36 42.251C178.62 42.251 179.584 41.9541 180.25 41.3604C180.917 40.7666 181.271 39.8239 181.313 38.5322H186.766ZM198.641 46.2354C198.453 45.8916 198.287 45.3864 198.141 44.7197C197.172 45.9385 195.818 46.5479 194.078 46.5479C192.485 46.5479 191.131 46.0687 190.016 45.1104C188.901 44.1416 188.344 42.9281 188.344 41.4697C188.344 39.6364 189.021 38.251 190.375 37.3135C191.729 36.376 193.698 35.9072 196.282 35.9072H197.907V35.0166C197.907 33.4645 197.235 32.6885 195.891 32.6885C194.641 32.6885 194.016 33.3031 194.016 34.5322H188.75C188.75 32.8968 189.443 31.5687 190.828 30.5479C192.224 29.527 194 29.0166 196.157 29.0166C198.313 29.0166 200.016 29.5426 201.266 30.5947C202.516 31.6468 203.157 33.0895 203.188 34.9229V42.4072C203.209 43.9593 203.448 45.1468 203.907 45.9697V46.2354H198.641ZM195.344 42.7979C196 42.7979 196.542 42.6572 196.969 42.376C197.407 42.0947 197.719 41.777 197.907 41.4229V38.7197H196.375C194.542 38.7197 193.625 39.5426 193.625 41.1885C193.625 41.6676 193.787 42.0583 194.11 42.3604C194.433 42.652 194.844 42.7979 195.344 42.7979ZM214.969 41.4854C214.969 41.0374 214.735 40.6781 214.266 40.4072C213.797 40.1364 212.907 39.8551 211.594 39.5635C210.282 39.2718 209.198 38.8916 208.344 38.4229C207.49 37.9437 206.839 37.3656 206.391 36.6885C205.943 36.0114 205.719 35.2354 205.719 34.3604C205.719 32.8083 206.36 31.5322 207.641 30.5322C208.922 29.5218 210.599 29.0166 212.672 29.0166C214.901 29.0166 216.693 29.5218 218.047 30.5322C219.401 31.5426 220.078 32.8708 220.078 34.5166H214.797C214.797 33.1624 214.084 32.4854 212.657 32.4854C212.104 32.4854 211.641 32.6416 211.266 32.9541C210.891 33.2562 210.703 33.6364 210.703 34.0947C210.703 34.5635 210.933 34.9437 211.391 35.2354C211.849 35.527 212.578 35.7666 213.578 35.9541C214.589 36.1416 215.474 36.3656 216.235 36.626C218.776 37.501 220.047 39.0687 220.047 41.3291C220.047 42.8708 219.36 44.126 217.985 45.0947C216.62 46.0635 214.849 46.5479 212.672 46.5479C211.224 46.5479 209.933 46.2874 208.797 45.7666C207.662 45.2458 206.776 44.5374 206.141 43.6416C205.506 42.7458 205.188 41.8031 205.188 40.8135H210.11C210.131 41.5947 210.391 42.1676 210.891 42.5322C211.391 42.8864 212.032 43.0635 212.813 43.0635C213.532 43.0635 214.068 42.9176 214.422 42.626C214.787 42.3343 214.969 41.9541 214.969 41.4854ZM228.657 25.126V29.3291H231.438V32.9854H228.657V40.7197C228.657 41.3551 228.771 41.7979 229 42.0479C229.229 42.2979 229.683 42.4229 230.36 42.4229C230.881 42.4229 231.318 42.3916 231.672 42.3291V46.0947C230.724 46.3968 229.735 46.5479 228.703 46.5479C226.891 46.5479 225.552 46.1208 224.688 45.2666C223.823 44.4124 223.391 43.1156 223.391 41.376V32.9854H221.235V29.3291H223.391V25.126H228.657Z" fill="white"/>
<path d="M23.3476 20.1594C23.6428 17.5115 24.6958 14.9186 26.5368 12.7246C31.5068 6.80158 40.3374 6.029 46.2604 10.999C52.1835 15.9691 52.9561 24.7996 47.986 30.7227C45.8935 33.2164 43.1167 34.7972 40.1607 35.4208" stroke="#1BA9EB" stroke-width="1.89831"/>
<path d="M30.4329 18.3625C30.6948 17.845 31.0199 17.3491 31.409 16.8854C34.1243 13.6494 38.9297 13.2113 42.1422 15.9069C45.3547 18.6025 45.7578 23.411 43.0424 26.647C42.5701 27.21 42.0345 27.6882 41.455 28.08" stroke="#1BA9EB" stroke-width="1.89831"/>
<path d="M10.6886 53.3187C9.65601 50.2452 11.6163 48.1615 12.7255 47.5038C12.0235 49.4563 12.5433 50.4442 12.8292 50.7677C14.0864 51.4214 15.4752 50.7029 16.0124 50.2619C15.0316 53.1842 12.0545 53.5174 10.6886 53.3187Z" fill="#1BA9EB"/>
<path fill-rule="evenodd" clip-rule="evenodd" d="M38.3973 19.8193C35.3276 19.8908 26.9714 22.3372 18.1041 31.5498L14.4286 32.1441C13.0117 33.2682 10.1412 36.6559 9.99453 41.2144L16.3023 40.5716L16.6976 42.4917L19.8374 45.1263L21.895 45.2645L22.1611 51.4234C24.1002 51.0719 28.4572 49.3997 30.3727 45.5228L30.2707 41.7588C33.5767 37.2875 39.8304 26.6398 38.3973 19.8193ZM29.8851 29.8984C31.1043 30.9214 32.9221 30.7624 33.9452 29.5432C34.9682 28.3239 34.8092 26.5062 33.5899 25.4831C32.3707 24.46 30.5529 24.619 29.5299 25.8383C28.5068 27.0575 28.6658 28.8753 29.8851 29.8984Z" fill="#1BA9EB"/>
</svg>
